<svg width="151" height="44" viewBox="0 0 151 44" fill="none" xmlns="http://www.w3.org/2000/svg">
<path d="M131.019 1.10263C131.583 1.07427 132.054 1.32673 132.432 1.86002C132.846 2.39154 133.071 3.06137 133.109 3.86952L134.209 27.6182C134.265 28.8304 134.533 29.6638 135.014 30.1183C135.493 30.536 136.173 30.7228 137.055 30.6785C137.937 30.6341 138.579 30.381 138.982 29.9189C139.383 29.4201 139.555 28.5645 139.499 27.3523L138.399 3.60367C138.362 2.79552 138.524 2.10619 138.886 1.53568C139.249 0.96517 139.712 0.665738 140.277 0.63738L146.096 0.344938C146.66 0.31658 147.149 0.568159 147.563 1.09967C147.976 1.63119 148.201 2.30103 148.239 3.10918L149.303 26.0864C149.57 31.8537 148.735 35.9458 146.796 38.3629C144.856 40.7432 141.788 42.0388 137.591 42.2497C133.359 42.4624 130.169 41.5181 128.021 39.4169C125.872 37.2789 124.663 33.3263 124.396 27.559L123.322 4.36136C123.284 3.55321 123.447 2.86388 123.809 2.29337C124.172 1.72286 124.635 1.42343 125.199 1.39507L131.019 1.10263Z" fill="#74C6F3"/>
<path d="M99.1574 3.17714C99.1724 2.44177 99.3614 1.83901 99.7242 1.36886C100.088 0.861946 100.517 0.613977 101.011 0.624956L112.025 0.869635C118.944 1.02334 122.335 4.46452 122.197 11.1932C122.124 14.7597 121.593 17.3781 120.606 19.0483C120.313 19.52 120.178 20.0871 120.2 20.7498C120.257 21.4132 120.476 21.9514 120.856 22.3645C122.065 23.6788 122.629 26.3031 122.549 30.2374C122.391 37.922 118.676 41.6835 111.404 41.522L100.178 41.2726C99.6842 41.2616 99.2655 41.0132 98.9223 40.5274C98.5798 40.0048 98.4161 39.3758 98.4312 38.6404L99.1574 3.17714ZM109.717 10.0883C109.152 10.0757 108.861 10.4923 108.844 11.3379L108.763 15.309C108.745 16.1546 109.019 16.5837 109.584 16.5963L110.908 16.6257C111.72 16.6437 112.307 16.3993 112.671 15.8924C113.035 15.3487 113.229 14.4886 113.253 13.312C113.296 11.2162 112.541 10.151 110.988 10.1165L109.717 10.0883ZM109.404 25.3656C108.839 25.353 108.548 25.788 108.53 26.6704L108.446 30.7517C108.44 31.0827 108.504 31.3784 108.64 31.6389C108.811 31.9002 109.02 32.0336 109.268 32.0391L110.697 32.0708C111.686 32.0928 112.344 31.8683 112.671 31.3974C113.032 31.0375 113.226 30.1774 113.254 28.817C113.279 27.5668 113.103 26.6985 112.724 26.2118C112.347 25.6884 111.716 25.417 110.834 25.3973L109.404 25.3656Z" fill="#74C6F3"/>
<path d="M81.0891 4.35077C81.6402 4.37109 82.0795 4.63889 82.4069 5.15419C82.7687 5.67076 82.9371 6.29761 82.9121 7.03475L82.1759 28.6967C82.1384 29.8024 82.3361 30.5813 82.7691 31.0334C83.2032 31.4519 83.8509 31.6771 84.7121 31.7089C85.5732 31.7406 86.2173 31.5631 86.6444 31.1762C87.0725 30.7559 87.3054 29.9929 87.343 28.8871L88.0791 7.22524C88.1042 6.4881 88.3147 5.87521 88.7107 5.38658C89.1067 4.89796 89.5802 4.6638 90.1314 4.68412L95.8151 4.89366C96.3663 4.91398 96.8228 5.18242 97.1846 5.69898C97.5464 6.21555 97.7148 6.8424 97.6898 7.57954L96.9775 28.5378C96.7988 33.7983 95.6746 37.4472 93.6049 39.4844C91.5364 41.4882 88.4526 42.4145 84.3534 42.2634C80.2198 42.111 77.1882 40.9928 75.2586 38.9087C73.3301 36.7912 72.4553 33.1022 72.634 27.8417L73.3531 6.68235C73.3781 5.94521 73.5887 5.33232 73.9846 4.84369C74.3806 4.35507 74.8542 4.12091 75.4054 4.14123L81.0891 4.35077Z" fill="#74C6F3"/>
<path d="M45.1009 4.48025C45.0503 3.71658 45.1918 3.07337 45.5254 2.55061C45.8566 1.98967 46.2788 1.69073 46.792 1.6538L58.2298 0.830789C65.4152 0.313769 69.2395 3.54902 69.703 10.5365C69.9487 14.2403 69.6348 17.006 68.7615 18.8337C68.5012 19.3512 68.4121 19.9522 68.4944 20.6369C68.6133 21.3189 68.8883 21.8554 69.3194 22.2464C70.6911 23.4905 71.5125 26.1554 71.7835 30.241C72.3128 38.2213 68.8015 42.4831 61.2496 43.0265L49.5918 43.8653C49.0786 43.9023 48.6222 43.6857 48.2227 43.2157C47.8206 42.7075 47.5943 42.0716 47.5436 41.3079L45.1009 4.48025ZM56.6685 10.6112C56.0819 10.6534 55.8178 11.1136 55.876 11.9919L56.1495 16.1156C56.2078 16.9939 56.5302 17.4119 57.1168 17.3697L58.4915 17.2707C59.3347 17.2101 59.9218 16.8993 60.253 16.3383C60.5816 15.7392 60.7054 14.8287 60.6243 13.6068C60.48 11.4304 59.6013 10.4002 57.9882 10.5163L56.6685 10.6112ZM57.7208 26.4763C57.1342 26.5186 56.8713 26.9979 56.9321 27.9143L57.2132 32.1526C57.236 32.4962 57.3296 32.7964 57.494 33.0532C57.695 33.3073 57.9238 33.4251 58.1804 33.4066L59.6652 33.2998C60.6916 33.2259 61.3534 32.9289 61.6504 32.4088C61.9917 32.0006 62.1154 31.0901 62.0217 29.6773C61.9356 28.3791 61.6745 27.4963 61.2383 27.0289C60.7996 26.5234 60.122 26.3036 59.2055 26.3695L57.7208 26.4763Z" fill="#74C6F3"/>
<path d="M25.1911 2.83214C25.2618 2.24372 25.456 1.76561 25.7738 1.39784C26.1269 1.03008 26.5153 0.846191 26.939 0.846191H38.9089C39.3326 0.846191 39.7034 1.03008 40.0212 1.39784C40.3743 1.76561 40.6038 2.24372 40.7097 2.83214L46.218 38.3586C46.3592 39.1677 46.2533 39.9033 45.9002 40.5652C45.5471 41.1904 45.0881 41.5031 44.5231 41.5031H38.2204C37.832 41.5031 37.4612 41.3376 37.1081 41.0066C36.7903 40.6388 36.5785 40.1607 36.4725 39.5723L36.3666 38.7448C36.2607 38.1931 36.0312 37.7334 35.6781 37.3657C35.3603 36.9979 35.0072 36.814 34.6188 36.814H31.0172C30.5582 36.814 30.1698 37.0163 29.852 37.4208C29.5342 37.7886 29.34 38.2851 29.2694 38.9103L29.1635 39.4619C29.0929 40.0504 28.881 40.5469 28.5279 40.9514C28.2101 41.3192 27.8394 41.5031 27.4157 41.5031H21.4307C20.8657 41.5031 20.4067 41.1904 20.0536 40.5652C19.7005 39.9033 19.5946 39.1861 19.7358 38.4138L25.1911 2.83214ZM32.4473 11.8793L31.1761 23.133C31.0702 23.9053 31.1938 24.6041 31.5469 25.2293C31.9 25.8177 32.359 26.1119 32.9239 26.1119C33.4889 26.1119 33.9479 25.8177 34.301 25.2293C34.6541 24.6041 34.7953 23.9053 34.7247 23.133L33.5065 11.8793H32.4473Z" fill="#74C6F3"/>
<path d="M1.80079 41.5031C1.30645 41.5031 0.882739 41.264 0.529643 40.7859C0.176548 40.271 0 39.6642 0 38.9655V3.3838C0 2.68504 0.176548 2.09661 0.529643 1.61851C0.882739 1.10363 1.30645 0.846191 1.80079 0.846191H8.05058C8.54491 0.846191 8.96863 1.10363 9.32172 1.61851C9.67482 2.09661 9.85137 2.68504 9.85137 3.3838V27.4911C9.85137 28.1898 10.0279 28.7966 10.381 29.3115C10.7341 29.7896 11.1402 30.0287 11.5992 30.0287H17.2664C17.7607 30.0287 18.1844 30.2861 18.5375 30.801C18.8906 31.2791 19.0672 31.8675 19.0672 32.5663V38.9655C19.0672 39.6642 18.8906 40.271 18.5375 40.7859C18.1844 41.264 17.7607 41.5031 17.2664 41.5031H1.80079Z" fill="#74C6F3"/>
</svg>
