<svg width="794" height="111" viewBox="0 0 794 111" fill="none" xmlns="http://www.w3.org/2000/svg">
<path d="M17.1878 0.463562H12.936V110.91H17.1878V0.463562Z" fill="#55A2B9"/>
<path d="M29.5209 0.463135H27.395V110.91H29.5209V0.463135Z" fill="#55A2B9"/>
<path d="M36.1264 0.46283H34.0005V110.909H36.1264V0.46283Z" fill="#55A2B9"/>
<path d="M8.98156 0.462769H7.29492V110.909H8.98156V0.462769Z" fill="#55A2B9"/>
<path d="M2.49816 0.463013H0.811523V110.91H2.49816V0.463013Z" fill="#55A2B9"/>
<path d="M46.6752 0.463074H44.5493V110.91H46.6752V0.463074Z" fill="#55A2B9"/>
<path d="M467.044 0.462708L464.918 0.462708V110.909H467.044V0.462708Z" fill="#55A2B9"/>
<path d="M634.634 0.462402L632.508 0.462402V110.909H634.634V0.462402Z" fill="#55A2B9"/>
<path d="M419.447 0.463501L417.321 0.463501V110.91H419.447V0.463501Z" fill="#55A2B9"/>
<path d="M429.806 0.463013L427.68 0.463013V110.91H429.806V0.463013Z" fill="#55A2B9"/>
<path d="M437.843 0.463257H436.991V110.91H437.843V0.463257Z" fill="#55A2B9"/>
<path d="M372.503 0.462708L370.377 0.462708V110.909H372.503V0.462708Z" fill="#55A2B9"/>
<path d="M382.852 0.463196L380.727 0.463196V110.91H382.852V0.463196Z" fill="#55A2B9"/>
<path d="M393.439 0.463074H392.586V110.91H393.439V0.463074Z" fill="#55A2B9"/>
<path d="M79.9617 0.462708H75.71V110.909H79.9617V0.462708Z" fill="#55A2B9"/>
<path d="M66.6089 0.463623L58.9487 0.463623V110.91H66.6089V0.463623Z" fill="#55A2B9"/>
<path d="M147.584 0.461609L143.332 0.461609V110.908H147.584V0.461609Z" fill="#55A2B9"/>
<path d="M198.982 0.463013L191.322 0.463013V110.91H198.982V0.463013Z" fill="#55A2B9"/>
<path d="M318.101 0.463623L309.589 0.463623V110.91H318.101V0.463623Z" fill="#55A2B9"/>
<path d="M359.863 0.462463L355.611 0.462463V110.909H359.863V0.462463Z" fill="#55A2B9"/>
<path d="M343.093 0.462952L341.819 0.462952V110.91H343.093V0.462952Z" fill="#55A2B9"/>
<path d="M328.782 0.462769L327.508 0.462769V110.909H328.782V0.462769Z" fill="#55A2B9"/>
<path d="M109.266 0.463135H107.14V110.91H109.266V0.463135Z" fill="#55A2B9"/>
<path d="M128.908 0.462769H127.634V110.909H128.908V0.462769Z" fill="#55A2B9"/>
<path d="M118.877 0.463318H117.604V110.91H118.877V0.463318Z" fill="#55A2B9"/>
<path d="M167.999 0.463074L166.726 0.463074V110.91H167.999V0.463074Z" fill="#55A2B9"/>
<path d="M179.734 0.461792L177.608 0.461792V110.908H179.734V0.461792Z" fill="#55A2B9"/>
<path d="M203.92 0.463745L202.646 0.463745V110.91H203.92V0.463745Z" fill="#55A2B9"/>
<path d="M209.999 0.46283L207.873 0.46283V110.909H209.999V0.46283Z" fill="#55A2B9"/>
<path d="M157.959 0.46167L156.685 0.46167V110.908H157.959V0.46167Z" fill="#55A2B9"/>
<path d="M137.165 0.46344L132.94 0.46344V110.91H137.165V0.46344Z" fill="#55A2B9"/>
<path d="M98.7343 0.463562H96.6084V110.91H98.7343V0.463562Z" fill="#55A2B9"/>
<path d="M90.2128 0.462402H87.2349V110.909H90.2128V0.462402Z" fill="#55A2B9"/>
<path d="M407.739 0.462524L403.487 0.462524V110.909H407.739V0.462524Z" fill="#55A2B9"/>
<path d="M229.905 0.463501L227.779 0.463501V110.91H229.905V0.463501Z" fill="#55A2B9"/>
<path d="M240.261 0.46283L238.135 0.46283V110.909H240.261V0.46283Z" fill="#55A2B9"/>
<path d="M266.879 0.463928L263.049 0.463928V110.911H266.879V0.463928Z" fill="#55A2B9"/>
<path d="M281.18 0.463867L277.35 0.463867V110.911H281.18V0.463867Z" fill="#55A2B9"/>
<path d="M273.176 0.463013L271.05 0.463013V110.91H273.176V0.463013Z" fill="#55A2B9"/>
<path d="M248.308 0.463623H247.456V110.91H248.308V0.463623Z" fill="#55A2B9"/>
<path d="M289.833 0.46283H288.98V110.909H289.833V0.46283Z" fill="#55A2B9"/>
<path d="M296.982 0.462646H296.13V110.909H296.982V0.462646Z" fill="#55A2B9"/>
<path d="M333.334 0.463196H332.481V110.91H333.334V0.463196Z" fill="#55A2B9"/>
<path d="M349.961 0.463806L347.835 0.463806V110.91H349.961V0.463806Z" fill="#55A2B9"/>
<path d="M218.194 0.462463L213.942 0.462463V110.909H218.194V0.462463Z" fill="#55A2B9"/>
<path d="M451.257 0.463623L447.005 0.463623V110.91H451.257V0.463623Z" fill="#55A2B9"/>
<path d="M484.955 0.462402L480.703 0.462402V110.909H484.955V0.462402Z" fill="#55A2B9"/>
<path d="M475.115 0.463928L470.863 0.463928V110.911H475.115V0.463928Z" fill="#55A2B9"/>
<path d="M497.481 0.462402L496.207 0.462402V110.909H497.481V0.462402Z" fill="#55A2B9"/>
<path d="M504.176 0.463989L502.902 0.463989V110.911H504.176V0.463989Z" fill="#55A2B9"/>
<path d="M513.9 0.462524L509.648 0.462524V110.909H513.9V0.462524Z" fill="#55A2B9"/>
<path d="M526.224 0.463257L524.098 0.463257V110.91H526.224V0.463257Z" fill="#55A2B9"/>
<path d="M543.388 0.463684L541.262 0.463684V110.91H543.388V0.463684Z" fill="#55A2B9"/>
<path d="M576.676 0.463501L572.424 0.463501V110.91H576.676V0.463501Z" fill="#55A2B9"/>
<path d="M563.314 0.462463L555.654 0.462463V110.909H563.314V0.462463Z" fill="#55A2B9"/>
<path d="M644.289 0.462646L640.037 0.462646V110.909H644.289V0.462646Z" fill="#55A2B9"/>
<path d="M695.687 0.462463L688.027 0.462463V110.909H695.687V0.462463Z" fill="#55A2B9"/>
<path d="M605.971 0.46344L603.845 0.46344V110.91H605.971V0.46344Z" fill="#55A2B9"/>
<path d="M625.622 0.463379L624.348 0.463379V110.91H625.622V0.463379Z" fill="#55A2B9"/>
<path d="M615.583 0.463867L614.309 0.463867V110.911H615.583V0.463867Z" fill="#55A2B9"/>
<path d="M664.712 0.462769L663.439 0.462769V110.909H664.712V0.462769Z" fill="#55A2B9"/>
<path d="M684.259 0.462463L682.985 0.462463V110.909H684.259V0.462463Z" fill="#55A2B9"/>
<path d="M701.108 0.463318L699.834 0.463318V110.91H701.108V0.463318Z" fill="#55A2B9"/>
<path d="M676.44 0.46283L674.314 0.46283V110.909H676.44V0.46283Z" fill="#55A2B9"/>
<path d="M654.672 0.462952L653.398 0.462952V110.91H654.672V0.462952Z" fill="#55A2B9"/>
<path d="M595.436 0.462097L593.311 0.462097V110.909H595.436V0.462097Z" fill="#55A2B9"/>
<path d="M586.918 0.46283L583.94 0.46283V110.909H586.918V0.46283Z" fill="#55A2B9"/>
<path d="M726.617 0.462402L724.491 0.462402V110.909H726.617V0.462402Z" fill="#55A2B9"/>
<path d="M736.976 0.463501L734.85 0.463501V110.91H736.976V0.463501Z" fill="#55A2B9"/>
<path d="M763.583 0.462463L759.753 0.462463V110.909H763.583V0.462463Z" fill="#55A2B9"/>
<path d="M779.808 0.462158L772.148 0.462158V110.909H779.808V0.462158Z" fill="#55A2B9"/>
<path d="M754.193 0.462646L752.067 0.462646V110.909H754.193V0.462646Z" fill="#55A2B9"/>
<path d="M745.012 0.462158H744.16V110.909H745.012V0.462158Z" fill="#55A2B9"/>
<path d="M707.052 0.463379H706.2V110.91H707.052V0.463379Z" fill="#55A2B9"/>
<path d="M786.536 0.462891H785.684V110.91H786.536V0.462891Z" fill="#55A2B9"/>
<path d="M793.688 0.462891H792.836V110.91H793.688V0.462891Z" fill="#55A2B9"/>
<path d="M714.907 0.463135L710.656 0.463135V110.91H714.907V0.463135Z" fill="#55A2B9"/>
</svg>
